<?xml version="1.0" encoding="UTF-8"?>
<!DOCTYPE svg PUBLIC "-//W3C//DTD SVG 1.1//EN" "http://www.w3.org/Graphics/SVG/1.1/DTD/svg11.dtd">
<!-- Creator: CorelDRAW X7 -->
<svg xmlns="http://www.w3.org/2000/svg" xml:space="preserve" width="7.8254mm" height="7.8254mm" version="1.1" style="shape-rendering:geometricPrecision; text-rendering:geometricPrecision; image-rendering:optimizeQuality; fill-rule:evenodd; clip-rule:evenodd"
viewBox="0 0 369 369"
 xmlns:xlink="http://www.w3.org/1999/xlink">
 <defs>
  <style type="text/css">
   <![CDATA[
    .str0 {stroke:black;stroke-width:0.943664}
    .fil2 {fill:black}
    .fil1 {fill:#EF7F1A}
    .fil0 {fill:#2B2A29;fill-rule:nonzero}
   ]]>
  </style>
 </defs>
 <g id="Layer_x0020_1">
  <metadata id="CorelCorpID_0Corel-Layer"/>
  <path class="fil0" d="M185 0c51,0 97,21 130,54 34,33 54,80 54,131 0,51 -20,97 -54,130 -33,34 -79,54 -130,54 -51,0 -98,-20 -131,-54 -33,-33 -54,-79 -54,-130 0,-51 21,-98 54,-131 33,-33 80,-54 131,-54zm124 61c-32,-32 -76,-52 -124,-52 -49,0 -93,20 -124,52 -32,31 -52,75 -52,124 0,48 20,92 52,124 31,31 75,51 124,51 48,0 92,-20 124,-51 31,-32 51,-76 51,-124 0,-49 -20,-93 -51,-124z"/>
  <path class="fil1 str0" d="M309 61c-32,-32 -76,-52 -124,-52 -49,0 -93,20 -124,52 -32,31 -52,75 -52,124 0,48 20,92 52,124 31,31 75,51 124,51 48,0 92,-20 124,-51 31,-32 51,-76 51,-124 0,-49 -20,-93 -51,-124z"/>
  <g id="_2271069824640">
   <path class="fil2" d="M161 74c-4,1 -8,3 -12,5 -2,2 -7,5 -9,7 -4,5 -9,13 -10,23 -1,16 6,23 13,32l0 0c-4,2 -6,0 -10,-1 -4,0 -9,0 -14,0 -15,0 -32,3 -45,-9 -8,-9 -6,-12 -8,-19l-3 0 -4 7c-1,2 -2,5 -3,7 -3,10 0,14 0,19 0,1 0,0 0,1 3,6 2,7 8,14 2,1 3,3 5,1 0,-4 -3,-4 -3,-10 1,-12 21,-3 30,-2 14,1 22,-4 37,-3 4,0 7,1 11,1l3 -2c1,0 8,4 9,5 3,0 7,2 11,3 12,3 24,2 36,-2 1,0 1,-1 3,-1 33,-14 36,-56 5,-73 -18,-9 -33,-7 -50,-3zm-26 37c0,35 50,51 79,29 8,-7 15,-16 15,-29 0,-18 -20,-31 -37,-23 -4,2 -7,4 -9,7 -1,1 -1,3 -2,4 -2,-4 -3,-7 -7,-10 -16,-10 -39,1 -39,22z"/>
   <path class="fil2" d="M117 197c1,11 11,28 17,37l8 11 0 0c2,4 15,18 16,19 1,5 -15,9 -11,23 3,10 19,14 23,10 1,-5 -5,-4 -2,-9l7 0c1,-3 -2,-4 -3,-6 -6,-12 22,-13 29,-7 5,5 -3,10 -1,12 2,2 4,1 7,1 3,4 -1,4 -1,9 3,3 9,1 13,-1 12,-5 10,-15 4,-22 -5,-7 -13,-5 -5,-15l13 -16c0,-3 9,-17 12,-26 10,-25 7,-52 -20,-63 -4,-1 -12,-4 -16,-2 -3,3 4,5 5,5 9,4 14,9 19,16 15,24 2,56 -13,77 -1,2 -3,4 -5,6 -4,6 -9,8 -9,13 5,3 8,-1 13,7 4,5 1,11 -3,13 0,-7 -1,-6 -6,-8 -2,-5 -3,-9 -7,-12 -4,-3 -9,-4 -14,-4 -6,0 -11,1 -15,4 -4,4 -4,6 -6,12 -5,1 -5,3 -5,8 -4,-2 -8,-8 -4,-13 5,-7 9,-4 12,-7 0,-4 -3,-5 -5,-7 -5,-4 -12,-13 -16,-18 -12,-17 -26,-46 -17,-68 6,-16 19,-18 23,-21l0 -3c-5,-1 -13,1 -18,3 -6,2 -9,6 -13,10 -7,8 -9,22 -6,32z"/>
   <path class="fil2" d="M199 94c-26,6 -17,43 8,37 9,-2 17,-11 15,-22 -2,-9 -11,-17 -23,-15zm1 5c-21,4 -14,34 6,30 20,-4 13,-35 -6,-30z"/>
   <path class="fil2" d="M224 140l-3 2 3 5c7,0 9,-4 24,-1 9,1 15,2 24,2 10,0 29,-9 31,2 0,6 -3,7 -4,10 3,5 9,-4 11,-8 2,-4 4,-9 5,-14 0,-9 -3,-17 -8,-24 -1,-2 -1,-2 -3,-2 -1,2 -2,8 -3,10 -5,10 -15,15 -26,18 -12,1 -32,-3 -41,0 -1,0 -3,1 -5,2 -2,0 -3,-1 -4,-2 -1,0 -1,0 -1,0z"/>
   <path class="fil2" d="M156 95c-22,4 -19,30 -4,35 1,0 2,1 2,1 14,4 28,-8 24,-22 -1,-9 -11,-17 -22,-14zm0 4c-4,1 -7,2 -9,6 -8,10 1,27 16,24 20,-5 13,-35 -7,-30z"/>
   <path class="fil2" d="M59 192c2,1 10,10 13,7 1,-1 -1,-3 -5,-8 -2,-3 -4,-6 -3,-10 3,-4 7,-3 13,-3 4,0 10,0 15,-1 4,0 22,-3 21,-7 -2,-2 -5,0 -9,0 -10,1 -21,2 -30,-1 -11,-3 -20,-11 -22,-22l-2 0c-3,8 -2,18 -1,26 3,8 5,12 9,18 1,1 0,0 1,1z"/>
   <path class="fil2" d="M311 192c0,-3 5,-6 8,-19 1,-4 2,-8 2,-12 0,-4 -1,-9 -1,-13l-1 -1c-1,-1 -1,0 -1,-1 -2,2 -2,5 -3,8 -13,26 -54,13 -59,16 1,6 32,8 37,8 5,0 10,-2 12,3 2,6 -8,15 -9,17 4,2 6,0 9,-1 3,-3 3,-4 6,-5z"/>
   <path class="fil2" d="M313 196c-6,11 -28,9 -40,6 -4,-1 -11,-4 -14,-4 2,4 9,9 14,11 8,3 17,4 19,5 -1,4 -7,5 -7,9 3,3 11,0 14,-1 1,-1 16,-9 18,-22 1,-8 -4,-4 -4,-4z"/>
   <path class="fil2" d="M71 223c4,1 9,2 13,1 0,-5 -5,-5 -7,-9 1,-1 15,-5 19,-6 2,-1 5,-2 7,-4 3,-2 6,-5 6,-5 -1,-2 2,-2 -6,0 -7,3 -15,4 -22,5 -8,0 -22,-2 -25,-9l-2 0c-1,-1 0,0 -1,-1 -5,7 7,21 15,25 1,2 3,2 3,3z"/>
   <path class="fil2" d="M71 229c1,4 2,4 6,6 1,2 4,4 7,5 8,3 13,3 22,2 1,-1 2,-2 2,-3 -1,-2 -6,-2 -9,-3 -2,0 -3,0 -4,-2 2,-3 21,-11 19,-18 -2,0 -7,3 -10,4 -3,3 -5,4 -9,5 -13,5 -20,2 -24,4z"/>
   <path class="fil2" d="M268 242c6,0 12,-1 16,-2 2,-1 4,-2 6,-3 2,-1 4,-3 6,-4 0,-1 0,0 0,-2 5,-4 -2,-3 -5,-3 -3,0 -4,-1 -6,-1 -8,-1 -15,-3 -21,-7 -3,-1 -6,-5 -8,-4 -3,5 11,13 16,15 2,2 1,1 2,3 -2,2 -9,2 -12,4 -1,4 2,3 6,4z"/>
   <path class="fil2" d="M104 245l-6 3c2,5 21,5 28,2 3,-1 6,-3 8,-4 1,0 0,0 1,0 2,-2 1,-1 2,-3 -4,-5 -10,2 -16,-1 0,-4 6,-7 5,-11 -4,-1 -8,5 -10,8 -4,2 -7,5 -12,6z"/>
   <path class="fil2" d="M232 243c9,10 27,10 39,6 0,-1 0,-1 0,-2 -7,-1 -12,-4 -15,-8 -2,-1 -3,-1 -4,-2 -3,-3 -5,-7 -9,-6 -2,4 5,6 5,10 -7,4 -10,-4 -16,2z"/>
   <path class="fil2" d="M214 115l0 -2c-3,-1 -4,-2 -6,-4 -2,-2 -3,-6 -5,-7 -3,5 -3,8 -11,10l-2 2c2,2 7,1 11,8 1,2 1,3 2,4 3,-2 4,-10 11,-11z"/>
   <path class="fil2" d="M147 114c1,3 0,0 4,2 2,1 5,4 7,6 0,2 1,3 2,5 4,-2 1,-7 9,-11l3 -1c-2,-3 -5,-1 -9,-9 -1,-2 -1,-3 -3,-3 -2,2 -1,3 -4,7 -4,2 -6,2 -9,4z"/>
   <path class="fil2" d="M179 141c-4,-1 1,-2 -5,-2 0,2 2,4 3,5 2,2 2,3 6,3 10,-10 9,-11 6,-16 -1,-2 -2,-4 -3,-5 -2,-2 -7,-13 -6,-1 1,6 2,14 -1,16z"/>
   <path class="fil2" d="M214 115c2,-1 0,-2 0,-2l0 2z"/>
   <path class="fil2" d="M181 100c0,0 0,0 0,0z"/>
  </g>
 </g>
</svg>
