<?xml version="1.0" encoding="UTF-8"?>
<!DOCTYPE svg PUBLIC "-//W3C//DTD SVG 1.1//EN" "http://www.w3.org/Graphics/SVG/1.1/DTD/svg11.dtd">
<!-- Creator: CorelDRAW X7 -->
<svg xmlns="http://www.w3.org/2000/svg" xml:space="preserve" width="32px" height="32px" version="1.1" shape-rendering="geometricPrecision" text-rendering="geometricPrecision" image-rendering="optimizeQuality" fill-rule="evenodd" clip-rule="evenodd"
viewBox="0 0 272 228"
 xmlns:xlink="http://www.w3.org/1999/xlink">
 <g id="Layer_x0020_1">
  <metadata id="CorelCorpID_0Corel-Layer"/>
  <path fill="#EF7F1A" d="M112 3c-3,2 -8,3 -11,5 -3,2 -7,6 -9,7 -5,6 -9,14 -10,24 -1,16 5,22 12,31l1 1c-4,2 -6,-1 -11,-1 -3,-1 -8,-1 -13,-1 -15,1 -32,3 -45,-9 -8,-8 -6,-12 -9,-18l-2 0 -4 6c-1,2 -2,5 -3,8 -3,10 -1,14 -1,18 0,1 0,0 1,2 3,5 2,7 8,13 2,1 3,3 5,1 0,-3 -4,-4 -3,-9 1,-13 21,-3 30,-3 14,1 22,-4 36,-3 5,0 8,2 12,2l3 -3c1,0 8,4 8,5 3,0 7,3 12,4 12,2 24,1 35,-2 1,-1 2,-2 3,-2 33,-14 37,-55 6,-72 -18,-10 -34,-8 -51,-4zm-25 37c0,36 49,52 78,29 9,-7 15,-16 15,-29 0,-17 -20,-30 -37,-22 -3,1 -6,4 -9,7 0,1 -1,2 -2,3 -1,-3 -2,-6 -7,-9 -16,-10 -38,1 -38,21z"/>
  <path fill="#EF7F1A" d="M68 126c2,11 11,28 18,37l7 11 1 0c2,4 15,18 15,19 2,5 -14,9 -10,23 3,10 19,13 23,10 0,-5 -5,-4 -2,-9l7 0c0,-4 -2,-4 -3,-6 -7,-12 21,-14 29,-7 5,4 -3,9 -2,12 3,2 4,1 7,1 3,4 -1,4 -1,9 4,3 9,1 14,-1 11,-5 9,-15 4,-22 -6,-7 -14,-5 -6,-15l13 -16c0,-3 9,-17 13,-26 10,-25 6,-52 -20,-63 -4,-1 -13,-4 -16,-1 -3,2 3,4 5,5 8,3 13,8 18,16 15,23 2,55 -12,76 -2,2 -4,4 -5,6 -5,6 -10,8 -10,12 5,4 8,0 14,8 3,5 0,11 -4,13 0,-7 -1,-6 -6,-8 -2,-5 -3,-9 -6,-12 -4,-3 -9,-4 -15,-4 -6,0 -10,1 -14,4 -5,4 -4,6 -6,12 -5,1 -5,2 -5,8 -4,-2 -8,-8 -5,-13 5,-8 9,-4 12,-8 0,-3 -2,-5 -5,-6 -4,-5 -11,-13 -15,-18 -13,-17 -27,-46 -18,-68 7,-16 20,-17 23,-21l0 -2c-4,-2 -13,0 -17,2 -6,3 -10,6 -13,10 -7,8 -9,22 -7,32z"/>
  <path fill="#EF7F1A" d="M150 24c-25,5 -17,42 9,37 9,-3 16,-11 14,-22 -2,-10 -11,-17 -23,-15zm1 4c-21,4 -13,34 6,30 20,-4 14,-34 -6,-30z"/>
  <path fill="#EF7F1A" d="M176 69l-4 3 4 5c6,-1 8,-4 24,-2 8,1 14,3 23,3 10,-1 29,-10 31,1 0,6 -3,8 -4,10 3,5 9,-4 11,-8 2,-4 4,-9 5,-14 0,-9 -3,-16 -8,-23 -1,-2 -1,-3 -3,-3 -1,2 -2,9 -3,11 -5,9 -15,15 -26,17 -11,2 -32,-2 -40,0 -2,1 -4,2 -5,2 -3,1 -4,0 -5,-1 0,0 0,-1 0,-1z"/>
  <path fill="#EF7F1A" d="M107 24c-21,5 -19,30 -3,36 0,0 1,0 2,0 14,4 27,-8 24,-22 -2,-9 -12,-16 -23,-14zm1 4c-5,1 -7,3 -10,6 -7,11 2,27 16,24 20,-4 14,-35 -6,-30z"/>
  <path fill="#EF7F1A" d="M11 121c1,1 10,10 13,7 1,-1 -2,-3 -5,-8 -2,-3 -4,-6 -3,-10 3,-4 7,-2 13,-2 4,0 9,-1 14,-2 5,0 23,-3 22,-7 -2,-1 -5,0 -9,0 -10,1 -21,2 -30,-1 -11,-3 -20,-10 -22,-22l-2 1c-3,7 -2,17 -1,25 3,8 5,12 9,18 1,1 0,0 1,1z"/>
  <path fill="#EF7F1A" d="M262 121c0,-2 5,-6 8,-18 1,-5 2,-9 2,-13 0,-4 -2,-9 -1,-12l-1 -2c-1,0 -1,0 -1,0 -2,1 -2,5 -3,7 -13,26 -54,13 -59,16 1,6 32,8 37,8 5,0 10,-2 12,3 2,6 -8,15 -9,17 4,2 6,0 9,-1 3,-2 3,-4 6,-5z"/>
  <path fill="#EF7F1A" d="M264 125c-6,11 -28,9 -40,6 -3,-1 -11,-4 -13,-4 1,4 9,9 14,11 7,3 16,4 18,5 -1,4 -7,5 -7,9 3,3 11,0 14,-1 1,-1 16,-9 18,-22 1,-8 -4,-4 -4,-4z"/>
  <path fill="#EF7F1A" d="M23 152c4,1 9,2 13,1 0,-5 -5,-5 -7,-9 1,-1 15,-4 18,-6 3,-1 5,-2 8,-3 2,-3 6,-6 6,-6 -1,-2 1,-2 -6,1 -7,2 -15,3 -22,4 -8,1 -22,-2 -26,-9l-1 0c-1,-1 0,0 -1,-1 -5,7 7,21 15,25 1,2 2,2 3,3z"/>
  <path fill="#EF7F1A" d="M23 158c1,4 2,4 6,6 1,2 4,4 7,5 7,3 13,3 21,2 1,-1 3,-2 3,-3 -1,-2 -6,-2 -9,-3 -3,0 -3,0 -4,-2 1,-2 21,-11 19,-18 -3,0 -8,3 -10,4 -3,3 -5,4 -9,5 -13,5 -20,2 -24,4z"/>
  <path fill="#EF7F1A" d="M220 171c5,0 11,-1 15,-2 2,-1 4,-2 6,-3 2,-1 4,-3 6,-4 0,-1 0,0 0,-1 5,-5 -2,-4 -5,-4 -3,0 -4,-1 -6,-1 -8,-1 -15,-3 -21,-7 -3,-1 -6,-4 -8,-4 -2,5 11,13 16,16 2,1 2,0 2,2 -2,2 -9,2 -12,4 -1,4 3,3 7,4z"/>
  <path fill="#EF7F1A" d="M56 174l-6 3c2,4 21,4 28,2 3,-1 6,-3 8,-4 1,0 0,0 1,0 1,-2 1,-1 1,-3 -3,-5 -9,2 -16,-1 1,-4 7,-7 6,-11 -5,-1 -8,5 -11,8 -3,2 -6,5 -11,6z"/>
  <path fill="#EF7F1A" d="M183 172c9,9 27,10 39,6 0,-2 0,-2 0,-2 -6,-1 -12,-4 -15,-8 -2,-1 -2,-1 -4,-2 -2,-3 -5,-7 -8,-6 -3,4 4,6 5,10 -8,4 -10,-4 -17,2z"/>
  <path fill="#EF7F1A" d="M165 44l1 -2c-4,-1 -5,-1 -7,-4 -1,-2 -3,-6 -5,-7 -3,5 -3,9 -10,11l-3 1c2,2 7,2 11,9 1,1 2,3 3,4 2,-2 3,-11 10,-12z"/>
  <path fill="#EF7F1A" d="M99 44c1,3 -1,0 4,2 2,1 5,4 6,6 1,2 1,3 3,4 3,-1 1,-7 9,-11l2 -1c-1,-3 -5,0 -9,-9 -1,-2 0,-2 -2,-3 -3,3 -1,4 -5,8 -3,2 -5,2 -8,4z"/>
  <path fill="#EF7F1A" d="M130 70c-3,-1 2,-2 -5,-2 1,2 3,4 4,5 1,2 2,4 5,4 10,-10 10,-11 6,-16 -1,-3 -2,-5 -2,-6 -2,-2 -7,-13 -6,-1 0,6 2,14 -2,16z"/>
  <path fill="#EF7F1A" d="M165 44c3,-1 1,-2 1,-2l-1 2z"/>
  <path fill="#EF7F1A" d="M132 29c0,0 0,0 0,0z"/>
 </g>
</svg>
