<?xml version="1.0" encoding="UTF-8"?>
<!DOCTYPE svg PUBLIC "-//W3C//DTD SVG 1.1//EN" "http://www.w3.org/Graphics/SVG/1.1/DTD/svg11.dtd">
<!-- Creator: CorelDRAW X7 -->
<svg xmlns="http://www.w3.org/2000/svg" xml:space="preserve" width="20.0mm" height="20.0mm" version="1.1" style="shape-rendering:geometricPrecision; text-rendering:geometricPrecision; image-rendering:optimizeQuality; fill-rule:evenodd; clip-rule:evenodd"
viewBox="0 0 10063 10063"
 xmlns:xlink="http://www.w3.org/1999/xlink">
 <defs>
  <style type="text/css">
   <![CDATA[
    .str3 {stroke:#FEFEFE;stroke-width:5.47399}
    .str1 {stroke:#2B2A29;stroke-width:5.47399}
    .str2 {stroke:black;stroke-width:5.47399}
    .str0 {stroke:black;stroke-width:5.47399}
    .fil7 {fill:none}
    .fil5 {fill:black}
    .fil3 {fill:black}
    .fil2 {fill:#EF7F1A}
    .fil4 {fill:#FEFEFE}
    .fil6 {fill:white}
    .fil1 {fill:#2B2A29;fill-rule:nonzero}
    .fil0 {fill:black;fill-rule:nonzero}
   ]]>
  </style>
 </defs>
 <g id="Layer_x0020_1">
  <metadata id="CorelCorpID_0Corel-Layer"/>
  <g id="_2271240278768">
   <path class="fil0 str0" d="M5031 1097c1087,0 2070,440 2782,1152 712,712 1153,1696 1153,2782 0,1087 -441,2070 -1153,2782 -712,712 -1695,1153 -2782,1153 -1086,0 -2070,-441 -2782,-1153 -712,-712 -1152,-1695 -1152,-2782 0,-1086 440,-2070 1152,-2782 712,-712 1696,-1152 2782,-1152zm2682 1252c-686,-686 -1634,-1111 -2682,-1111 -1047,0 -1995,425 -2682,1111 -686,687 -1111,1635 -1111,2682 0,1048 425,1996 1111,2682 687,687 1635,1111 2682,1111 1048,0 1996,-424 2682,-1111 687,-686 1111,-1634 1111,-2682 0,-1047 -424,-1995 -1111,-2682z"/>
   <path class="fil1 str0" d="M5031 2221c777,0 1479,314 1988,823 508,508 823,1211 823,1987 0,776 -314,1479 -823,1988 -509,508 -1211,823 -1988,823 -776,0 -1479,-315 -1987,-823 -509,-509 -823,-1212 -823,-1988 0,-776 314,-1479 823,-1987 508,-509 1211,-823 1987,-823zm1888 923c-483,-483 -1151,-782 -1888,-782 -737,0 -1404,299 -1887,782 -483,483 -782,1150 -782,1887 0,737 299,1405 782,1888 483,483 1150,782 1887,782 737,0 1405,-299 1888,-782 483,-483 782,-1151 782,-1888 0,-737 -299,-1404 -782,-1887z"/>
   <path class="fil2 str1" d="M6919 3144c-483,-483 -1151,-782 -1888,-782 -737,0 -1404,299 -1887,782 -483,483 -782,1150 -782,1887 0,737 299,1405 782,1888 483,483 1150,782 1887,782 737,0 1405,-299 1888,-782 483,-483 782,-1151 782,-1888 0,-737 -299,-1404 -782,-1887z"/>
   <path class="fil3 str0" d="M5834 7487l0 -202c-8,-59 -152,-17 -211,-42 -26,-25 -77,-84 -85,-135 -8,-76 42,-109 85,-135 93,-50 820,-438 829,-463 0,-76 17,-160 -26,-202l-558 0c-169,0 -102,-34 -152,-43l-1185 -8c-42,17 -51,51 -93,67l-922 9c-17,34 -42,50 -59,76 50,25 110,50 160,76 60,25 110,50 170,75 110,51 211,101 321,160l609 287c26,17 26,8 43,25 16,17 67,194 -94,211 -50,0 -110,-8 -135,34 -25,50 -8,101 25,126 -42,59 -42,76 0,135l534 -9c25,-42 50,-84 126,-75 85,109 17,84 356,67 76,0 203,8 245,-17 9,-17 0,-8 17,-17z"/>
   <path class="fil3 str0" d="M4641 2726c-51,25 -118,42 -169,76 -42,34 -110,84 -144,109 -68,85 -135,203 -152,354 -17,245 84,346 194,481l9 8c-68,34 -93,-8 -161,-17 -59,-8 -135,-8 -203,-8 -228,8 -491,50 -685,-135 -127,-126 -102,-185 -136,-278l-34 0 -59 93c-17,33 -42,76 -51,118 -50,151 -8,210 -8,286 0,9 0,0 8,17 43,84 34,110 127,202 26,26 43,51 77,17 0,-50 -60,-59 -51,-143 17,-186 321,-42 457,-34 211,9 338,-59 558,-50 68,0 110,25 178,25l42 -42c17,8 118,67 127,76 51,8 110,42 178,59 186,42 363,25 541,-34 17,-9 26,-17 42,-17 508,-219 559,-851 85,-1112 -271,-144 -508,-110 -770,-51zm-384 561c0,542 751,790 1192,446 132,-103 227,-249 227,-446 0,-262 -302,-463 -562,-344 -54,25 -100,63 -132,110 -11,17 -18,37 -30,52 -29,-52 -39,-95 -112,-141 -244,-153 -583,11 -583,323z"/>
   <path class="fil3 str1" d="M3973 4605c25,169 169,430 270,565l110 168 9 -8c25,59 228,278 237,295 25,76 -220,135 -161,354 42,143 288,202 347,152 8,-85 -76,-68 -25,-144l101 0c9,-50 -25,-59 -42,-92 -102,-186 330,-203 440,-110 76,76 -43,152 -17,194 34,25 59,8 101,8 51,68 -17,59 -17,144 60,42 144,16 212,-17 169,-76 144,-236 59,-337 -84,-110 -203,-76 -84,-228l194 -253c9,-33 144,-252 195,-387 152,-388 101,-801 -305,-961 -59,-17 -194,-59 -245,-25 -42,42 51,67 76,76 127,59 211,126 279,244 229,354 34,843 -186,1163 -25,34 -51,59 -76,93 -68,92 -144,126 -144,193 76,59 119,-8 203,110 59,84 9,177 -51,202 0,-101 -17,-93 -93,-126 -34,-76 -42,-135 -101,-177 -59,-42 -136,-59 -220,-68 -93,0 -161,17 -220,68 -68,59 -59,84 -93,177 -76,17 -76,42 -76,126 -60,-25 -119,-118 -68,-202 76,-110 135,-51 186,-110 0,-59 -42,-75 -76,-101 -68,-67 -178,-202 -237,-278 -195,-253 -406,-699 -271,-1028 102,-253 296,-270 356,-329l0 -33c-77,-26 -203,8 -271,42 -93,34 -144,84 -195,143 -110,127 -144,337 -101,497z"/>
   <path class="fil3 str0" d="M4404 8162c-25,84 43,8 34,126 0,42 -17,286 -34,320 -17,42 -51,9 -51,76 43,34 313,59 381,42 262,-42 288,-447 68,-531 -51,-25 -364,-59 -398,-33z"/>
   <path class="fil3 str1" d="M5225 3038c-389,84 -262,649 127,564 135,-33 254,-168 220,-337 -26,-143 -169,-261 -347,-227zm17 67c-322,59 -212,523 84,455 305,-59 212,-522 -84,-455z"/>
   <path class="fil3 str0" d="M5614 3729l-59 42 59 76c102,-9 127,-59 364,-25 127,16 220,42 364,42 152,-9 440,-144 465,25 9,84 -42,110 -59,143 51,85 135,-59 169,-118 34,-59 59,-135 68,-210 8,-144 -43,-253 -119,-363 -17,-25 -17,-33 -42,-33 -17,25 -34,126 -51,160 -67,143 -228,227 -397,261 -170,25 -483,-34 -610,0 -25,8 -59,25 -76,34 -42,8 -51,-9 -67,-26 -9,0 -9,-8 -9,-8z"/>
   <path class="fil3 str1" d="M4565 3046c-322,68 -288,455 -51,540 9,0 26,8 34,8 212,59 415,-118 364,-337 -26,-135 -178,-253 -347,-211zm8 59c-67,17 -110,42 -143,93 -119,160 25,413 245,362 305,-67 203,-531 -102,-455z"/>
   <path class="fil3 str0" d="M5673 8195c34,93 102,270 110,379 -67,59 -42,102 110,59 60,-16 102,-25 93,-84 -33,-17 -76,0 -101,-143 -9,-51 0,-17 8,-25 110,-43 127,59 186,134 68,85 237,17 204,-50 -68,-42 -43,34 -110,-84 -51,-85 -85,-59 -119,-85 110,-50 85,-303 -135,-261 -17,9 -280,76 -296,93 -34,50 16,59 50,67z"/>
   <path class="fil3 str2" d="M3093 4529c25,17 161,152 203,102 17,-17 -26,-43 -76,-118 -34,-51 -60,-93 -51,-161 51,-59 110,-33 195,-33 67,0 152,-9 228,-17 68,-9 347,-51 330,-110 -34,-25 -85,-8 -144,0 -144,17 -321,26 -457,-16 -169,-43 -296,-161 -330,-338l-34 9c-42,109 -33,261 -8,388 34,126 68,185 127,278 17,8 8,0 17,16z"/>
   <path class="fil3 str0" d="M6926 4521c8,-34 76,-84 126,-278 17,-67 26,-126 34,-185 0,-68 -25,-144 -17,-194l-17 -26c-8,-8 -8,0 -16,-8 -26,25 -34,76 -51,118 -195,396 -821,194 -897,236 17,101 491,126 567,126 84,0 152,-25 186,42 25,93 -119,228 -135,270 50,25 84,-8 126,-25 51,-34 60,-59 94,-76z"/>
   <path class="fil3 str0" d="M3795 7993c-25,42 8,59 25,76 -8,109 -76,278 -110,371 -33,8 -33,8 -59,25 0,50 17,50 68,67 42,17 84,26 118,9 26,-118 -76,42 17,-270 0,-8 9,-25 9,-34 8,-17 8,-17 17,-25 25,25 101,185 127,228 25,67 93,227 143,210 34,-8 102,-295 127,-379 34,-101 34,-42 85,-93 25,-59 -152,-101 -178,-67 -17,34 0,42 26,67 0,42 -34,186 -60,219 -50,-42 -160,-328 -211,-379 -26,-17 -102,-42 -144,-25z"/>
   <path class="fil3 str0" d="M2577 7791c-26,59 25,84 67,109 34,34 76,76 127,51l-8 -68c17,-33 51,-84 84,-118 68,59 212,194 330,51 119,-143 -33,-236 -118,-295l-68 -51c-8,-8 -59,-50 -67,-59 -68,-16 -43,34 -43,68 0,42 -177,244 -220,286 -34,43 -34,17 -84,26z"/>
   <path class="fil3 str0" d="M6655 7690c-195,67 -229,362 76,328 42,-8 118,-25 161,-17 42,17 50,76 17,110 -60,67 -144,25 -187,8 -25,-8 -50,-16 -59,9 -17,25 59,253 322,17 17,-9 8,0 25,-9 0,-8 127,-185 -34,-269 -110,-51 -262,67 -347,-26 0,-59 34,-92 77,-101 59,-8 101,34 152,9 59,-43 -76,-135 -127,-118 -9,8 -25,33 -34,33 -8,9 -25,17 -42,26z"/>
   <path class="fil3 str0" d="M6968 4580c-102,177 -432,143 -618,93 -51,-9 -161,-51 -203,-51 26,59 136,127 212,160 110,51 245,68 279,85 -9,59 -102,67 -110,126 51,51 169,0 220,-17 8,-8 237,-135 279,-329 17,-126 -59,-67 -59,-67z"/>
   <path class="fil3 str0" d="M5403 8195c17,59 42,9 59,84 8,43 8,93 17,135 8,101 25,194 -59,236 -254,118 -195,-387 -195,-387 25,-26 42,-17 42,-68 -51,-33 -194,-8 -245,17 -9,84 51,8 68,135 8,59 8,118 8,185 8,127 51,203 186,211 119,8 246,-25 271,-126 34,-85 -9,-270 0,-380 25,-25 42,-25 42,-67 -34,-25 -59,-25 -110,-17 -42,0 -67,9 -84,42z"/>
   <path class="fil3 str0" d="M3245 7715c0,42 9,42 17,67 -8,76 -102,211 -127,287 -59,143 25,210 119,261 126,67 228,51 287,-59 42,-67 110,-219 152,-270 26,0 51,0 68,-8 9,-51 -17,-59 -51,-84 -186,-85 -101,50 -101,50 0,17 -26,68 -34,85 -25,50 -51,101 -76,151 -102,186 -254,42 -254,-25 0,-51 127,-295 152,-312 9,0 153,-17 17,-93 -25,-16 -135,-84 -169,-50z"/>
   <path class="fil3 str2" d="M3279 4993c59,17 135,42 203,17 0,-68 -85,-76 -110,-135 17,-8 228,-67 279,-84 42,-17 76,-42 110,-59 42,-34 93,-85 102,-85 -17,-25 17,-25 -102,9 -101,34 -220,59 -330,67 -127,9 -338,-33 -389,-135l-17 -8c-17,-8 0,0 -25,-8 -68,109 110,320 228,387 17,17 42,17 51,34z"/>
   <path class="fil3 str2" d="M3279 5086c17,67 34,67 85,101 25,25 67,50 118,67 110,42 195,42 321,34 17,-9 43,-25 34,-51 -8,-25 -84,-25 -135,-33 -34,-9 -42,-9 -59,-34 25,-42 321,-169 287,-278 -33,0 -110,50 -143,67 -51,34 -85,51 -144,68 -195,75 -305,25 -364,59z"/>
   <path class="fil3 str0" d="M6283 5288c84,0 169,-9 236,-34 34,-8 68,-25 93,-42 34,-17 60,-51 85,-59 9,-17 0,-8 9,-25 67,-76 -34,-59 -85,-59 -34,0 -59,-9 -93,-9 -110,-16 -220,-50 -313,-109 -42,-17 -93,-68 -127,-59 -34,76 178,202 254,236 25,17 17,8 25,42 -34,34 -135,34 -186,50 -8,68 42,59 102,68z"/>
   <path class="fil3 str0" d="M1637 6097c-25,67 -16,126 51,152 -25,16 -17,8 -25,25l34 76 321 -93 -34 -93c-59,17 -203,76 -262,68 -68,-110 119,-85 237,-144l-25 -84c-43,9 -110,25 -161,42 -59,17 -127,59 -127,-33 34,-26 203,-76 254,-85l-26 -92c-76,25 -169,50 -245,75 -118,43 -68,144 8,186z"/>
   <path class="fil3 str0" d="M1934 3308l0 67 -17 -17c-26,9 -51,51 -60,76l288 160c0,0 9,-8 9,0 0,0 0,-8 0,-8l8 -9c9,-8 9,-8 17,-17 8,-17 8,-25 25,-42 -50,-33 -152,-76 -228,-135 8,-134 144,9 271,68l50 -84c-42,-17 -203,-110 -228,-135 8,-34 8,-26 25,-51 60,0 187,93 246,118l51 -76 -212 -118c-102,-59 -161,17 -152,127 -51,8 -85,33 -93,76z"/>
   <path class="fil3 str0" d="M8330 3999l-17 8 9 -17c0,-227 -305,-109 -339,-25 -34,59 9,109 51,126l-17 26 25 75 432 -134 -34 -93 -110 34z"/>
   <path class="fil3 str0" d="M8508 4883c25,-8 76,-8 101,-8l0 -59 0 -34 -448 17c0,59 0,42 34,68 -186,227 313,294 313,101 8,-42 -9,-51 -26,-76 0,0 0,0 0,0 0,0 0,-9 0,-9l26 0z"/>
   <path class="fil3 str0" d="M6359 5911c-110,59 -68,203 93,203 59,0 118,-9 152,-51 59,-59 -5,-104 -25,-135 101,-59 59,-168 -85,-177 -161,-8 -211,101 -135,160zm97 56c34,0 61,15 61,34 0,18 -27,33 -61,33 -33,0 -61,-15 -61,-33 0,-19 28,-34 61,-34zm28 -148c33,0 61,15 61,33 0,19 -28,34 -61,34 -34,0 -61,-15 -61,-34 0,-18 27,-33 61,-33z"/>
   <path class="fil3 str2" d="M3660 6004c-17,51 -34,68 -93,59l-26 -25c-67,0 -144,0 -67,67 33,34 109,42 169,26 59,-9 101,-43 118,-93 26,-42 34,-118 9,-169 -17,-50 -51,-84 -119,-92 -186,-17 -245,126 -169,202 51,50 101,42 178,25zm-93 -76c32,65 129,18 101,-50 -27,-69 -134,-15 -101,50z"/>
   <path class="fil3 str0" d="M6883 7597c68,0 68,-17 136,67 25,26 42,42 67,68l119 151c-9,26 -17,34 -9,68 43,34 85,-17 119,-42 25,-26 84,-59 76,-118 -59,-26 -51,17 -102,-34 -17,-8 -25,-25 -42,-34l-110 -135c-25,-33 -51,-50 -68,-92 0,-42 17,-42 0,-76 -59,-9 -93,42 -127,59 -33,25 -84,59 -59,118z"/>
   <path class="fil3 str0" d="M6409 8364c-67,101 34,84 127,42 43,-25 93,-34 76,-93 -67,-25 -59,0 -93,-76l-110 -236c-33,-101 34,-67 0,-126 -25,-34 -253,51 -211,110 17,33 42,0 76,42 25,42 135,286 135,337z"/>
   <path class="fil4 str0" d="M4565 8633c296,135 313,-455 42,-396 -42,51 -51,321 -42,396z"/>
   <path class="fil3 str2" d="M3778 5338l-93 43c34,67 322,67 432,25 42,-9 93,-42 126,-51 9,-8 0,0 9,-8 25,-25 17,-9 25,-42 -50,-85 -144,33 -245,-17 8,-59 101,-101 85,-169 -68,-8 -119,85 -161,118 -51,34 -102,85 -178,101z"/>
   <path class="fil3 str0" d="M5724 5296c144,152 415,160 601,93 0,-17 0,-17 -9,-25 -93,-17 -177,-68 -228,-118 -25,-17 -34,-17 -51,-34 -42,-42 -84,-110 -135,-93 -34,59 67,93 76,160 -110,59 -152,-67 -254,17z"/>
   <path class="fil3 str0" d="M1367 4639l0 34 34 8 414 42 9 -92 -119 -9 -34 0 17 -25c43,0 102,-34 153,-51l8 -109c-51,17 -186,92 -237,92 -17,-16 -25,-25 -51,-42 -25,-33 -25,-33 -50,-50l-9 67c26,25 93,76 110,101l-237 -25 -8 59z"/>
   <path class="fil3 str0" d="M1900 4133l-17 0 -9 17c-67,9 -186,-59 -245,-42 -68,17 -85,135 -76,211l59 0c-17,-59 -25,-84 17,-118 110,-9 0,143 118,194 110,42 187,-59 127,-144 26,-8 77,-33 51,-109l-25 -9z"/>
   <path class="fil3 str0" d="M6638 2052l0 17c25,0 25,-9 42,8 42,9 59,17 68,59 -59,76 -152,-50 -237,42 -85,85 0,160 110,152 8,51 42,76 110,76l17 -34c0,0 -9,-8 -9,0l-17 -25c26,-51 119,-160 119,-202 -9,-68 -119,-110 -195,-127l-8 34z"/>
   <path class="fil3 str0" d="M5589 1656l-9 42c59,-8 110,-25 136,34 0,67 -170,8 -212,101 -51,118 68,143 152,118l17 25c26,25 76,25 93,17 26,-9 17,-17 26,-34l-26 -25c26,-135 136,-287 -127,-287l-50 9c0,0 0,0 0,0z"/>
   <path class="fil3 str0" d="M8025 6105c-42,34 -67,26 -59,118l51 0c0,0 8,-17 8,-17 60,9 195,59 237,59 68,-16 93,-126 85,-202l-51 -8c9,50 26,92 -34,118l-42 -17c-8,-101 9,-177 -93,-194 -93,-17 -144,67 -102,143z"/>
   <path class="fil5 str0" d="M4531 1909c34,8 42,17 93,25 26,-17 59,-25 76,-42 43,42 68,34 136,8l-9 -42 -34 0c-17,-67 0,-211 -33,-244 -51,-34 -178,-17 -229,17l17 50c34,-25 85,-59 127,-17 17,118 -203,9 -144,245z"/>
   <path class="fil3 str0" d="M1722 4976c-135,34 -355,-84 -254,236 26,-8 34,0 51,-17 -25,-42 -42,-67 -8,-118l42 0c51,59 34,160 144,160 110,0 127,-101 67,-168l26 -17c8,-25 8,-51 0,-67 -9,-43 -26,-34 -51,-43 -17,17 0,0 -8,17 -26,51 8,-17 -9,17z"/>
   <path class="fil3 str0" d="M8330 4226c9,25 25,25 34,51 25,50 8,59 0,67 -76,59 -76,-118 -195,-118 -84,0 -160,84 -42,177 -42,51 -17,84 8,126l51 -8c-17,-51 -8,-34 119,-59 143,-34 177,-67 76,-253l-51 17z"/>
   <path class="fil3 str0" d="M1773 3619c8,17 -9,9 8,26 26,0 212,67 229,101 -9,33 -9,33 -26,59 -59,0 -203,-68 -253,-93l-43 93c85,25 153,59 229,84 110,42 160,-42 135,-143 42,8 34,8 68,-76l-313 -127 -34 76z"/>
   <path class="fil3 str0" d="M2365 2751l-59 68c34,33 85,67 127,92 42,34 101,59 34,118 -43,17 -161,-109 -229,-143 -17,34 -34,42 -59,68 17,33 152,118 186,143 93,67 178,8 178,-93 25,9 25,9 51,-17 16,-17 25,-25 33,-50 -67,-34 -236,-177 -262,-186z"/>
   <path class="fil3 str0" d="M8169 5161l-8 76c101,17 254,0 279,51 8,76 -51,59 -110,50 -59,0 -118,0 -169,-8l-9 93c161,0 313,59 347,-42 17,-43 9,-85 -17,-110 -17,-17 -17,25 -8,-17 34,0 8,0 34,-8l8 -76 -330 -17 -17 8z"/>
   <path class="fil3 str0" d="M1747 5515l17 26c68,76 34,143 -84,160l-34 -194c-237,25 -178,261 -25,287 93,16 177,-17 211,-76 42,-85 0,-169 -34,-219l-51 16z"/>
   <path class="fil5 str0" d="M3939 2060c-9,-17 -17,-25 -26,-42 -8,9 -143,177 -211,-17l195 -75c-43,-186 -330,-127 -305,58 17,135 127,194 262,144 43,-26 51,-42 85,-68z"/>
   <path class="fil5 str0" d="M5073 1883c0,-16 -9,-8 8,-8l34 34 68 0 0 -245 0 -67 -93 0c8,34 0,50 0,84l0 68c-9,0 -9,0 -9,8 0,42 9,51 -17,84 -93,17 -76,-17 -76,-92 0,-51 0,-110 8,-161l-101 0c0,68 -17,203 0,253 8,76 127,93 178,42z"/>
   <path class="fil3 str0" d="M6689 5844l169 0c-51,51 -144,143 -144,261l127 0c25,-135 42,-168 127,-253 25,-33 17,-42 34,-92l-305 0 -8 84z"/>
   <path class="fil3 str1" d="M5453 3350l9 -26c-59,-16 -68,-25 -102,-67 -25,-25 -42,-93 -76,-101 -42,76 -42,126 -161,160l-33 17c25,34 101,25 160,135 17,17 26,42 43,59 33,-34 50,-160 160,-177z"/>
   <path class="fil3 str1" d="M4438 3341c17,51 -8,0 59,34 34,17 76,59 102,93 8,25 17,42 34,67 59,-25 17,-109 143,-168l34 -17c-25,-42 -76,-9 -135,-135 -17,-34 -9,-42 -42,-51 -34,42 -9,59 -68,118 -51,34 -85,34 -127,59z"/>
   <path class="fil3 str1" d="M4920 3746c-59,-17 17,-34 -76,-34 9,34 34,67 51,84 25,26 34,51 85,51 152,-152 143,-169 93,-245 -17,-33 -34,-67 -43,-84 -25,-33 -101,-194 -93,-17 9,93 34,211 -17,245z"/>
   <path class="fil3 str0" d="M6807 2381c-25,16 -34,25 -51,42 34,42 43,67 85,92 110,68 228,-8 186,-109l-42 -84c-9,-17 0,-17 8,-26 59,-33 76,26 102,68l42 -26c-51,-134 -237,-143 -262,-42 -17,76 76,135 51,177 -26,26 -68,0 -77,-17 -25,-16 -33,-42 -42,-75z"/>
   <path class="fil5 str0" d="M4142 1926l0 33c-34,51 -85,25 -144,17l0 59c102,17 220,-17 229,-101 16,-135 -110,-93 -195,-135l0 -34c42,-33 68,-25 127,-16l0 -51c-93,-8 -203,17 -212,101 -17,127 144,93 195,127z"/>
   <path class="fil3 str2" d="M3144 5861c-17,17 -17,34 -17,67l93 -8 -34 211 118 0 60 -346 -94 0c-25,51 -59,59 -126,76z"/>
   <path class="fil3 str0" d="M1350 4816l0 42c17,0 8,0 25,0 26,0 9,0 26,9l397 33 9 -101 -457 -34 0 51z"/>
   <path class="fil5 str0" d="M4252 1614l17 42 -42 17 8 25c8,8 -8,8 42,8 43,346 93,253 195,245l0 -51 -42 0c-17,-17 -26,-59 -34,-101 -9,-42 -17,-76 -17,-109l42 -17 -8 -34 -51 0 -9 -51 -101 26z"/>
   <path class="fil3 str0" d="M1511 5330l-9 -17c0,-8 -8,-17 -8,-25l-34 8 0 42 -59 0 17 93 50 0 9 34 34 0 8 -42c85,0 262,0 288,-42 8,-43 8,-76 -17,-110l-43 0c9,42 0,34 -8,42l-228 17z"/>
   <path class="fil3 str0" d="M1976 4015c-9,-8 0,-8 -9,-16l-423 -127 -25 93 432 126 25 -76z"/>
   <path class="fil3 str0" d="M6283 2237c-26,0 -26,-8 -43,-25 -25,8 -17,8 -34,25 17,26 60,68 119,59 51,-8 68,-50 84,-101 43,-76 85,-168 127,-244l-93 -42 -160 328z"/>
   <path class="fil3 str0" d="M8135 5920c-76,-194 204,-135 229,-68 25,51 -9,76 -34,102l59 16c136,-303 -220,-337 -296,-202 -17,26 -25,59 -25,93 0,50 8,50 67,59z"/>
   <path class="fil3 str0" d="M6079 2043c0,-8 0,-8 -8,-8 -127,8 -135,-67 -93,-160 42,-84 110,-101 169,-25 9,0 17,-17 17,-17 0,-9 9,-25 9,-34 -102,-50 -229,-93 -297,59 -93,211 161,219 195,228l8 -43z"/>
   <path class="fil3 str0" d="M8127 4580l8 93c204,-9 271,-68 288,42l68 -9c0,-33 0,-42 -34,-59l8 -109 -338 42z"/>
   <path class="fil3 str0" d="M5420 1622c-9,17 16,0 -17,17l0 -25 -93 -9c0,42 -51,287 -34,312l93 17c0,-59 17,-118 17,-169 8,-67 17,-84 93,-84l8 -67 -67 8z"/>
   <path class="fil5 str0" d="M3423 1968c-34,-17 -9,-9 -102,25l161 278c17,0 25,-8 42,-17 9,0 17,-8 26,-8l17 -17c-43,-84 -110,-160 -102,-228l42 -33 -33 -59c-34,25 -43,25 -51,59z"/>
   <polygon class="fil3 str0" points="8127,5600 8465,5625 8474,5532 8135,5499 "/>
   <path class="fil3 str0" d="M6130 2119c34,9 59,26 93,34 17,-51 102,-244 136,-295l-102 -34c-25,93 -110,211 -127,295z"/>
   <path class="fil6 str0" d="M2898 7706c42,34 102,93 169,34 51,-67 9,-135 -50,-160 -34,0 -102,101 -119,126z"/>
   <path class="fil6 str0" d="M5826 8145c-9,42 25,118 33,160 68,-17 136,-34 119,-110 -9,-76 -93,-92 -152,-50z"/>
   <path class="fil6 str0" d="M8212 4926c0,59 59,59 118,59 169,-9 161,-102 9,-102 -51,0 -102,0 -127,43z"/>
   <path class="fil6 str0" d="M8042 4049c43,42 85,25 144,9 51,-26 93,-34 85,-93 -59,-34 -229,0 -229,84z"/>
   <path class="fil3 str0" d="M7459 7361l177 -8 17 -34 -127 -17c-59,-84 -25,-126 -93,-118l26 177z"/>
   <path class="fil3 str0" d="M2424 7209l-135 34 0 34 178 0c17,-127 42,-152 0,-194l-43 126z"/>
   <path class="fil3 str0" d="M7459 7361c-43,-42 -26,-118 -85,-101 -8,25 17,118 25,168 26,0 60,0 93,0 43,-8 51,0 68,-33 -42,-34 -84,8 -101,-34z"/>
   <path class="fil3 str0" d="M2484 7285l-136 34 0 34 178 0c0,-26 8,-59 8,-85 0,-50 17,-59 -17,-84 -16,17 0,-17 -16,17 0,8 0,25 -9,25 0,25 -8,34 -8,59z"/>
   <path class="fil3 str0" d="M6511 7614l-59 33 8 17c34,0 51,17 76,17 26,0 43,-17 68,-25l34 -25 8 -93c-67,8 -67,25 -76,93l-59 -17z"/>
   <path class="fil3 str0" d="M6156 7883c42,9 84,-16 127,-33 16,-17 33,-17 59,-34 34,-17 34,-17 25,-51 -42,0 -127,43 -178,68 -33,17 -33,8 -33,50z"/>
   <polygon class="fil3 str0" points="5631,1580 5826,1631 5843,1588 5639,1538 "/>
   <path class="fil6 str0" d="M1747 4226c-25,-8 -8,-8 -16,9 0,42 8,67 42,75 51,17 68,0 68,-50 -26,-25 -43,-25 -94,-34z"/>
   <path class="fil6 str0" d="M8144 4327c-17,93 59,59 127,42 -17,-42 -68,-84 -127,-42z"/>
   <path class="fil6 str0" d="M4692 1841l-9 -92c-143,50 -59,177 9,92z"/>
   <path class="fil6 str0" d="M8178 6147c-9,-25 -9,-50 -26,-75 -17,-17 -50,-34 -76,-17 -67,50 59,84 102,92z"/>
   <polygon class="fil3 str0" points="1350,5195 1384,5195 1384,5001 1341,5001 1341,5010 "/>
   <path class="fil6 str0" d="M6579 2271c25,17 50,25 76,0 8,-8 34,-59 42,-67 -68,-9 -127,-9 -118,67z"/>
   <path class="fil6 str0" d="M5690 1808c-25,0 -59,8 -76,25 -17,8 -34,50 -8,67 59,51 76,-50 84,-92z"/>
   <path class="fil6 str0" d="M3685 1951c8,8 -17,8 17,0l85 -25c-26,-43 -26,-68 -94,-59 -16,25 -25,42 -8,84z"/>
   <path class="fil6 str0" d="M1705 5077c-25,0 -76,-8 -93,9 17,33 17,33 42,59 26,8 51,0 77,-9l0 -42 -26 -17z"/>
   <path class="fil6 str0" d="M1578 5701l43 0 8 -17 -8 -76c-51,9 -68,17 -85,51 8,33 8,33 42,42z"/>
   <path class="fil3 str0" d="M8499 5633l51 0c25,-50 25,-101 -42,-92 -17,25 -26,59 -9,92z"/>
   <path class="fil3 str0" d="M6469 1875c8,34 50,59 93,34 34,-59 -76,-93 -93,-34z"/>
   <path class="fil3 str0" d="M6384 1808c-8,-59 -101,-68 -101,-26 -9,42 59,68 101,26z"/>
   <path class="fil3 str0" d="M1350 5195l-9 -185 0 -9 43 0c-26,-16 -26,-8 -51,-8 -9,51 0,93 0,152 0,33 0,33 17,50z"/>
   <path class="fil5 str0" d="M5081 1757c0,-8 0,-8 9,-8l0 -68c0,-34 8,-50 0,-84l93 0 0 67c0,0 0,-8 0,0l8 -33c0,-17 0,-34 0,-43l-110 0 0 169z"/>
   <path class="fil3 str0" d="M8508 4883l110 0c0,-33 0,-42 -9,-67l0 59c-25,0 -76,0 -101,8z"/>
   <path class="fil3 str0" d="M1612 5086c17,-17 68,-9 93,-9 -17,-17 -76,-8 -101,-8l8 17z"/>
   <path class="fil3 str0" d="M1401 4867c-17,-9 0,-9 -26,-9 -17,0 -8,0 -25,0l0 -42c-17,25 -9,17 -9,51l60 0z"/>
   <path class="fil3 str0" d="M1917 3358l17 17 0 -67c-26,25 0,25 -17,50z"/>
   <path class="fil3 str0" d="M1578 5701c0,0 -8,8 26,8 17,0 17,0 33,0l-8 -25 -8 17 -43 0z"/>
   <path class="fil3 str0" d="M6680 2077c-17,-17 -17,-8 -42,-8l0 -17c-9,8 -9,-9 -9,25l51 0z"/>
   <path class="fil3 str0" d="M8482 5271c0,0 9,0 9,0 0,0 0,0 8,-8 9,-9 0,0 9,-17 -26,8 0,8 -34,8 -9,42 -9,0 8,17z"/>
   <path class="fil3 str0" d="M1401 4681l-34 -8 0 -34c-17,25 -9,17 -9,42l43 0z"/>
   <polygon class="fil3 str0" points="1705,4622 1688,4597 1671,4622 "/>
   <path class="fil3 str0" d="M5115 1909l-34 -34c-17,0 -8,-8 -8,8l42 26z"/>
   <path class="fil3 str0" d="M1511 5330l-9 -34c0,-8 9,-8 -17,-8 -42,0 -17,0 -25,8l34 -8c0,8 8,17 8,25l9 17z"/>
   <path class="fil3 str0" d="M1874 4150l9 -17 17 0c-9,-16 0,-8 -26,-8l0 25z"/>
   <path class="fil3 str0" d="M5420 1622c-9,0 -9,0 -17,-8l0 25c33,-17 8,0 17,-17z"/>
   <path class="fil3 str0" d="M1781 3645c-17,-17 0,-9 -8,-26 -17,0 -9,0 -9,17l17 9z"/>
   <path class="fil3 str1" d="M5453 3350c34,-17 9,-26 9,-26l-9 26z"/>
   <path class="fil3 str0" d="M1976 4015l8 -16 -17 0c9,8 0,8 9,16z"/>
   <polygon class="fil3 str0" points="8169,5161 8186,5153 8169,5145 "/>
   <polygon class="fil3 str0" points="8330,3999 8322,3990 8313,4007 "/>
   <polygon class="fil3 str0" points="6460,7664 6452,7647 6443,7656 "/>
   <path class="fil3 str0" d="M1731 4235c8,-17 -9,-17 16,-9l-25 -8 9 17z"/>
   <path class="fil3 str0" d="M6079 2043l9 -16 -17 8c8,0 8,0 8,8z"/>
  </g>
  <rect class="fil7 str3" x="3" y="3" width="10057" height="10057"/>
 </g>
</svg>
